HIERARCHY
ROOT Hips
{
	OFFSET 0.000000 97.167313 0.000000
	CHANNELS 6 Xposition Yposition Zposition Xrotation Yrotation Zrotation
	JOINT Spine
	{
		OFFSET 0.000000 13.784798 0.064400
		CHANNELS 3 Xrotation Yrotation Zrotation
		JOINT Spine1
		{
			OFFSET 0.000000 12.037903 0.404700
			CHANNELS 3 Xrotation Yrotation Zrotation
			JOINT Spine2
			{
				OFFSET 0.000000 17.795601 0.420200
				CHANNELS 3 Xrotation Yrotation Zrotation
				JOINT Neck
				{
					OFFSET 0.000000 39.131302 11.954600
					CHANNELS 3 Xrotation Yrotation Zrotation
					JOINT Head
					{
						OFFSET 0.000000 14.456192 15.627699
						CHANNELS 3 Xrotation Yrotation Zrotation
						JOINT HeadTop_End
						{
							OFFSET 0.000000 15.703506 7.603401
							CHANNELS 3 Xrotation Yrotation Zrotation
							End Site
							{
								OFFSET 0.000000 17.447403 0.000000
							}
						}
					}
				}
				JOINT LeftShoulder
				{
					OFFSET 17.399500 24.608795 1.168800
					CHANNELS 3 Xrotation Yrotation Zrotation
					JOINT LeftArm
					{
						OFFSET 18.980635 5.765305 1.818600
						CHANNELS 3 Xrotation Yrotation Zrotation
						JOINT LeftForeArm
						{
							OFFSET 49.290169 0.000000 0.000000
							CHANNELS 3 Xrotation Yrotation Zrotation
							JOINT LeftHand
							{
								OFFSET 31.562012 0.000000 0.000000
								CHANNELS 3 Xrotation Yrotation Zrotation
								JOINT LeftHandThumb1
								{
									OFFSET 6.133995 -4.388519 7.076070
									CHANNELS 3 Xrotation Yrotation Zrotation
									JOINT LeftHandThumb2
									{
										OFFSET 6.037666 -3.485840 3.485847
										CHANNELS 3 Xrotation Yrotation Zrotation
										JOINT LeftHandThumb3
										{
											OFFSET 6.496506 -3.750763 3.750761
											CHANNELS 3 Xrotation Yrotation Zrotation
											JOINT LeftHandThumb4
											{
												OFFSET 5.616882 -3.242905 3.242910
												CHANNELS 3 Xrotation Yrotation Zrotation
												End Site
												{
													OFFSET -1.254608 7.132141 0.375429
												}
											}
										}
									}
								}
								JOINT LeftHandPinky1
								{
									OFFSET 18.920792 -0.453171 -11.426712
									CHANNELS 3 Xrotation Yrotation Zrotation
									JOINT LeftHandPinky2
									{
										OFFSET 4.919586 0.000000 0.000000
										CHANNELS 3 Xrotation Yrotation Zrotation
										JOINT LeftHandPinky3
										{
											OFFSET 5.233047 0.000000 0.000000
											CHANNELS 3 Xrotation Yrotation Zrotation
											JOINT LeftHandPinky4
											{
												OFFSET 5.571716 0.000000 0.000000
												CHANNELS 3 Xrotation Yrotation Zrotation
												End Site
												{
													OFFSET -3.459808 4.342407 -0.466164
												}
											}
										}
									}
								}
								JOINT LeftHandRing1
								{
									OFFSET 22.726120 -0.094986 -6.500475
									CHANNELS 3 Xrotation Yrotation Zrotation
									JOINT LeftHandRing2
									{
										OFFSET 6.408615 0.000000 0.000000
										CHANNELS 3 Xrotation Yrotation Zrotation
										JOINT LeftHandRing3
										{
											OFFSET 6.150223 0.000000 0.000000
											CHANNELS 3 Xrotation Yrotation Zrotation
											JOINT LeftHandRing4
											{
												OFFSET 6.145386 0.000000 0.000000
												CHANNELS 3 Xrotation Yrotation Zrotation
												End Site
												{
													OFFSET -3.671402 4.923981 -0.202372
												}
											}
										}
									}
								}
								JOINT LeftHandMiddle1
								{
									OFFSET 23.373947 0.000000 0.000001
									CHANNELS 3 Xrotation Yrotation Zrotation
									JOINT LeftHandMiddle2
									{
										OFFSET 6.996567 0.000000 0.000000
										CHANNELS 3 Xrotation Yrotation Zrotation
										JOINT LeftHandMiddle3
										{
											OFFSET 7.015945 0.000000 0.000000
											CHANNELS 3 Xrotation Yrotation Zrotation
											JOINT LeftHandMiddle4
											{
												OFFSET 7.721573 0.000000 0.000000
												CHANNELS 3 Xrotation Yrotation Zrotation
												End Site
												{
													OFFSET -4.651108 6.158463 0.251582
												}
											}
										}
									}
								}
								JOINT LeftHandIndex1
								{
									OFFSET 21.310577 -0.490082 6.209344
									CHANNELS 3 Xrotation Yrotation Zrotation
									JOINT LeftHandIndex2
									{
										OFFSET 7.536453 0.000000 0.000000
										CHANNELS 3 Xrotation Yrotation Zrotation
										JOINT LeftHandIndex3
										{
											OFFSET 7.512344 0.000000 0.000000
											CHANNELS 3 Xrotation Yrotation Zrotation
											JOINT LeftHandIndex4
											{
												OFFSET 10.212402 0.000000 0.000001
												CHANNELS 3 Xrotation Yrotation Zrotation
												End Site
												{
													OFFSET -5.180801 8.690506 1.388433
												}
											}
										}
									}
								}
							}
						}
					}
				}
				JOINT RightShoulder
				{
					OFFSET -17.399500 24.608795 1.168800
					CHANNELS 3 Xrotation Yrotation Zrotation
					JOINT RightArm
					{
						OFFSET -18.980635 5.765305 1.818600
						CHANNELS 3 Xrotation Yrotation Zrotation
						JOINT RightForeArm
						{
							OFFSET -49.290169 0.000000 0.000000
							CHANNELS 3 Xrotation Yrotation Zrotation
							JOINT RightHand
							{
								OFFSET -31.562012 0.000000 0.000000
								CHANNELS 3 Xrotation Yrotation Zrotation
								JOINT RightHandThumb1
								{
									OFFSET -6.133995 -4.388519 7.076070
									CHANNELS 3 Xrotation Yrotation Zrotation
									JOINT RightHandThumb2
									{
										OFFSET -6.037666 -3.485840 3.485847
										CHANNELS 3 Xrotation Yrotation Zrotation
										JOINT RightHandThumb3
										{
											OFFSET -6.496506 -3.750763 3.750761
											CHANNELS 3 Xrotation Yrotation Zrotation
											JOINT RightHandThumb4
											{
												OFFSET -5.616882 -3.242905 3.242910
												CHANNELS 3 Xrotation Yrotation Zrotation
												End Site
												{
													OFFSET 1.254608 7.132141 0.375429
												}
											}
										}
									}
								}
								JOINT RightHandIndex1
								{
									OFFSET -21.310577 -0.490082 6.209344
									CHANNELS 3 Xrotation Yrotation Zrotation
									JOINT RightHandIndex2
									{
										OFFSET -7.536453 0.000000 0.000000
										CHANNELS 3 Xrotation Yrotation Zrotation
										JOINT RightHandIndex3
										{
											OFFSET -7.512344 0.000000 0.000000
											CHANNELS 3 Xrotation Yrotation Zrotation
											JOINT RightHandIndex4
											{
												OFFSET -10.212402 0.000000 0.000001
												CHANNELS 3 Xrotation Yrotation Zrotation
												End Site
												{
													OFFSET 5.180801 8.690506 1.388433
												}
											}
										}
									}
								}
								JOINT RightHandMiddle1
								{
									OFFSET -23.373947 0.000000 0.000001
									CHANNELS 3 Xrotation Yrotation Zrotation
									JOINT RightHandMiddle2
									{
										OFFSET -6.996567 0.000000 0.000000
										CHANNELS 3 Xrotation Yrotation Zrotation
										JOINT RightHandMiddle3
										{
											OFFSET -7.015945 0.000000 0.000000
											CHANNELS 3 Xrotation Yrotation Zrotation
											JOINT RightHandMiddle4
											{
												OFFSET -7.721573 0.000000 0.000000
												CHANNELS 3 Xrotation Yrotation Zrotation
												End Site
												{
													OFFSET 4.651108 6.158463 0.251582
												}
											}
										}
									}
								}
								JOINT RightHandRing1
								{
									OFFSET -22.726120 -0.094986 -6.500475
									CHANNELS 3 Xrotation Yrotation Zrotation
									JOINT RightHandRing2
									{
										OFFSET -6.408615 0.000000 0.000000
										CHANNELS 3 Xrotation Yrotation Zrotation
										JOINT RightHandRing3
										{
											OFFSET -6.150223 0.000000 0.000000
											CHANNELS 3 Xrotation Yrotation Zrotation
											JOINT RightHandRing4
											{
												OFFSET -6.145386 0.000000 0.000000
												CHANNELS 3 Xrotation Yrotation Zrotation
												End Site
												{
													OFFSET 3.671402 4.923981 -0.202372
												}
											}
										}
									}
								}
								JOINT RightHandPinky1
								{
									OFFSET -18.920792 -0.453171 -11.426712
									CHANNELS 3 Xrotation Yrotation Zrotation
									JOINT RightHandPinky2
									{
										OFFSET -4.919586 0.000000 0.000000
										CHANNELS 3 Xrotation Yrotation Zrotation
										JOINT RightHandPinky3
										{
											OFFSET -5.233047 0.000000 0.000000
											CHANNELS 3 Xrotation Yrotation Zrotation
											JOINT RightHandPinky4
											{
												OFFSET -5.571716 0.000000 0.000000
												CHANNELS 3 Xrotation Yrotation Zrotation
												End Site
												{
													OFFSET 3.459808 4.342407 -0.466164
												}
											}
										}
									}
								}
							}
						}
					}
				}
			}
		}
	}
	JOINT LeftUpLeg
	{
		OFFSET 19.899099 -7.885101 -3.429500
		CHANNELS 3 Xrotation Yrotation Zrotation
		JOINT LeftLeg
		{
			OFFSET 1.745560 -36.997807 10.304700
			CHANNELS 3 Xrotation Yrotation Zrotation
			JOINT LeftFoot
			{
				OFFSET -1.745558 -29.803308 -13.615400
				CHANNELS 3 Xrotation Yrotation Zrotation
				JOINT LeftToeBase
				{
					OFFSET 1.181900 -18.539904 15.226099
					CHANNELS 3 Xrotation Yrotation Zrotation
					JOINT LeftToe_End
					{
						OFFSET -0.863701 1.402801 16.534700
						CHANNELS 3 Xrotation Yrotation Zrotation
						End Site
						{
							OFFSET 0.000000 16.616566 0.000000
						}
					}
				}
			}
		}
	}
	JOINT RightUpLeg
	{
		OFFSET -19.899099 -7.885101 -3.429500
		CHANNELS 3 Xrotation Yrotation Zrotation
		JOINT RightLeg
		{
			OFFSET -1.745560 -36.997807 10.304700
			CHANNELS 3 Xrotation Yrotation Zrotation
			JOINT RightFoot
			{
				OFFSET 1.745558 -29.803308 -13.615400
				CHANNELS 3 Xrotation Yrotation Zrotation
				JOINT RightToeBase
				{
					OFFSET -1.181900 -18.539904 15.226099
					CHANNELS 3 Xrotation Yrotation Zrotation
					JOINT RightToe_End
					{
						OFFSET 0.863701 1.402801 16.534700
						CHANNELS 3 Xrotation Yrotation Zrotation
						End Site
						{
							OFFSET 0.000000 16.616566 0.000000
						}
					}
				}
			}
		}
	}
}
MOTION
Frames: 4
Frame Time: 0.033333
-5.810560 84.146767 -0.071191 48.318257 -69.740295 47.355013 8.738585 1.255692 1.368047 15.947023 1.999739 1.546035 15.942618 1.950550 1.631494 2.998327 -1.922631 -0.652670 13.839558 -8.682948 6.837964 -0.000001 -0.000000 0.000001 -3.198440 -41.587270 4.648956 -8.953452 -31.303279 -67.049194 0.000003 -60.363422 0.000004 -60.206424 15.976828 50.647625 -6.000702 -6.126816 4.616739 21.817974 32.795734 -3.625691 2.098175 -3.703295 20.817179 0.000001 -0.000003 0.000001 7.119439 8.075976 -101.878412 4.229593 5.622641 -73.884677 4.229589 5.622648 -73.884677 -0.000000 0.000004 -0.000005 6.009154 8.198438 -90.873625 5.595277 5.845483 -87.489847 5.595259 5.845475 -87.489826 -0.000000 -0.000001 0.000003 4.026021 7.886907 -71.099394 3.643109 5.419833 -67.794873 3.643328 5.419909 -67.797277 0.000002 -0.000001 0.000006 4.219950 7.948937 -73.095824 3.832769 5.493078 -69.789206 3.832771 5.493060 -69.789227 -0.000002 0.000001 0.000001 -0.174927 17.246836 8.740848 -26.822703 36.333430 59.018435 0.000004 28.463551 0.000015 -62.294255 -14.222051 -1.339554 5.189444 -4.118706 4.840002 6.770145 -26.184070 -5.575818 -8.139089 9.968284 -11.014176 -0.000000 -0.000001 -0.000000 4.721908 -7.555427 61.944577 4.543812 -4.655791 88.603598 1.987371 -3.817316 54.992223 -0.000000 -0.000001 -0.000001 2.374762 -6.876867 88.566961 2.640138 -4.198596 64.310739 1.766756 -3.653239 51.606696 0.000001 0.000000 -0.000004 1.423197 -7.162166 93.782630 2.373235 -4.059736 60.605047 0.100064 -0.961215 11.885821 -0.000001 -0.000000 0.000002 0.357146 -12.488388 83.827301 1.263229 -3.190981 43.186405 1.263235 -3.191000 43.186426 -0.000000 -0.000003 0.000001 -40.449951 8.709112 7.132372 37.862518 2.500975 2.605093 -12.145850 1.952272 -5.536515 -1.346688 -0.000022 0.000002 0.000000 -0.000001 0.000000 -39.994121 -10.791764 -15.122068 35.899870 7.921006 -7.221470 -11.918676 -2.674079 13.052033 -2.068399 -0.000016 0.000001 0.000000 -0.000000 -0.000000 
-5.754862 84.137550 -0.084620 48.389011 -69.740063 47.444536 8.738585 1.256027 1.368133 15.947037 1.999738 1.546032 15.942623 1.950549 1.631485 3.018240 -1.922636 -0.652682 13.856311 -8.720494 6.888648 -0.000001 -0.000000 0.000000 -3.248183 -41.518866 4.560985 -9.315797 -31.330187 -67.181481 -0.000022 -60.284424 -0.000018 -60.553179 16.188624 50.780243 -6.143901 -6.215561 4.648267 21.780427 32.817567 -3.562574 2.099118 -3.700849 20.785599 0.000000 -0.000001 0.000003 7.108448 8.078256 -101.768617 4.226384 5.621746 -73.852042 4.226405 5.621736 -73.852049 -0.000000 0.000004 0.000002 5.928396 8.199601 -90.829795 5.598152 5.845608 -87.518076 5.598200 5.845606 -87.518663 0.000000 0.000000 -0.000000 3.998022 7.877384 -70.968541 3.643318 5.419888 -67.797079 3.643339 5.419903 -67.797270 -0.000000 -0.000001 0.000006 4.065779 7.841607 -73.039946 3.830769 5.492345 -69.768292 3.830830 5.492341 -69.768709 -0.000001 -0.000000 -0.000001 -0.171862 17.262280 8.715516 -26.796297 36.262823 58.776141 0.000004 28.590308 0.000002 -62.194869 -14.768028 -1.351481 5.287252 -4.270904 4.980346 6.740660 -26.158953 -5.672152 -8.157840 10.013046 -10.926384 -0.000001 0.000001 -0.000001 4.734639 -7.573731 61.711429 4.558049 -4.656115 88.779017 1.998640 -3.825150 55.161093 -0.000000 -0.000003 -0.000002 2.306128 -6.874880 88.557344 2.638431 -4.197765 64.287284 1.766759 -3.653238 51.606693 -0.000000 0.000001 -0.000006 1.416448 -7.157665 93.703618 2.367803 -4.056704 60.528406 0.100062 -0.961214 11.885826 -0.000001 0.000001 -0.000005 0.349978 -12.486406 83.795370 1.271369 -3.199597 43.332349 1.271381 -3.199632 43.332407 -0.000000 -0.000003 0.000004 -40.507106 8.729250 7.160966 37.837496 2.466327 2.565997 -12.068796 1.952956 -5.575528 -1.343985 -0.000031 -0.000005 0.000000 0.000000 0.000000 -40.093047 -10.786938 -15.151356 35.903818 7.965998 -7.206128 -11.850023 -2.669402 13.087586 -2.093352 0.000011 0.000002 0.000000 0.000000 -0.000000 
-5.703335 84.132278 -0.104465 48.455008 -69.742536 47.528616 8.738590 1.256138 1.367967 15.947047 1.994814 1.546043 15.942609 1.950540 1.631484 3.035353 -1.922621 -0.652676 13.873710 -8.735749 6.868636 -0.000000 -0.000000 0.000001 -3.309665 -41.468042 4.454479 -9.731893 -31.386799 -67.382821 0.000011 -60.080823 0.000004 -60.929993 16.426019 50.962637 -6.279657 -6.334179 4.671259 21.693282 32.827757 -3.468622 2.100328 -3.697624 20.744244 0.000004 -0.000001 0.000000 7.094675 8.081037 -101.630852 4.232259 5.623426 -73.911956 4.232267 5.623411 -73.911922 -0.000002 0.000000 -0.000002 5.840034 8.200597 -90.732950 5.598034 5.845606 -87.517140 5.598169 5.845606 -87.518356 -0.000001 0.000000 -0.000002 3.970105 7.867699 -70.789132 3.645313 5.420713 -67.818198 3.643350 5.419898 -67.797291 0.000000 0.000000 0.000008 3.894077 7.719663 -73.035588 3.832962 5.493147 -69.791358 3.833037 5.493175 -69.792218 -0.000000 -0.000000 0.000003 -0.155228 17.265108 8.608414 -26.923883 36.261030 58.706938 0.000018 28.361152 -0.000008 -62.120823 -15.248875 -1.113262 5.477593 -4.268933 5.246893 6.728306 -26.211044 -5.731674 -8.203850 10.200817 -10.823107 0.000000 0.000000 -0.000001 4.754684 -7.594026 61.522499 4.566625 -4.656276 88.884769 2.005160 -3.829683 55.258799 -0.000000 -0.000001 0.000001 2.245355 -6.872210 88.527250 2.637534 -4.197318 64.275133 1.766768 -3.653245 51.606690 0.000001 0.000000 -0.000008 1.411517 -7.154323 93.645671 2.373508 -4.059897 60.609091 0.100060 -0.961238 11.885823 0.000000 -0.000000 -0.000002 0.291152 -12.504218 83.818948 1.276891 -3.205439 43.431161 1.276674 -3.205208 43.427019 -0.000002 -0.000002 -0.000001 -40.558579 8.744631 7.180770 37.810711 2.442596 2.534236 -11.995737 1.952842 -5.593763 -1.372332 -0.000012 0.000000 -0.000000 0.000000 0.000000 -40.185346 -10.784515 -15.168704 35.915484 8.009762 -7.198544 -11.793601 -2.658663 13.084170 -2.059166 -0.000020 -0.000003 -0.000000 -0.000000 -0.000000 
-5.660294 84.132828 -0.129242 48.472210 -69.753683 47.557566 8.738612 1.255977 1.367374 15.947039 1.984022 1.546033 15.942609 1.950548 1.631486 3.056543 -1.922630 -0.652673 13.907671 -8.747568 6.829247 0.000001 0.000000 0.000000 -3.330542 -41.417970 4.416529 -10.266343 -31.488210 -67.729180 0.000003 -59.692834 0.000013 -61.358014 16.583481 51.085713 -6.274500 -6.320923 4.653618 21.657481 32.780789 -3.453480 2.100681 -3.687576 20.746908 0.000001 -0.000001 0.000002 7.090749 8.081845 -101.591585 4.238535 5.625218 -73.975983 4.238511 5.625225 -73.976003 -0.000000 0.000001 0.000001 5.834008 8.200621 -90.716257 5.601600 5.845748 -87.552083 5.601725 5.845754 -87.553367 -0.000000 -0.000001 0.000005 3.980099 7.871135 -70.767235 3.647959 5.421789 -67.846120 3.643342 5.419895 -67.797277 0.000000 -0.000000 0.000008 3.834691 7.676673 -73.060997 3.835439 5.494045 -69.817094 3.835529 5.494082 -69.818091 -0.000001 0.000003 0.000001 -0.147089 17.303352 8.532710 -27.029743 36.233945 58.634032 0.000011 27.991358 0.000004 -61.974247 -15.746993 -0.782073 5.681677 -4.178413 5.514923 6.722024 -26.273603 -5.772674 -8.259067 10.444158 -10.728467 -0.000002 -0.000004 0.000001 4.773519 -7.599970 61.604925 4.574901 -4.656438 88.986778 2.010831 -3.833609 55.343988 0.000000 -0.000001 -0.000002 2.205808 -6.876429 88.651621 2.637804 -4.197478 64.279061 1.766761 -3.653234 51.606696 0.000000 -0.000001 -0.000006 1.412723 -7.155136 93.659830 2.370990 -4.058501 60.573587 0.100080 -0.961231 11.885823 -0.000002 -0.000001 -0.000002 0.260974 -12.512688 83.824883 1.282775 -3.211618 43.536333 1.282404 -3.211264 43.529919 -0.000002 0.000002 0.000004 -40.585049 8.751475 7.205799 37.784214 2.427586 2.506705 -11.933608 1.952640 -5.603363 -1.376263 -0.000024 -0.000002 -0.000000 -0.000000 -0.000000 -40.242894 -10.783045 -15.171819 35.929462 8.030049 -7.192255 -11.752867 -2.643928 13.042059 -1.971059 -0.000031 0.000003 -0.000000 0.000001 -0.000000 
